<?xml version="1.0" encoding="utf-8"?>
<!-- Generator: Adobe Illustrator 27.4.1, SVG Export Plug-In . SVG Version: 6.00 Build 0)  -->
<svg version="1.1" id="Layer_1" xmlns="http://www.w3.org/2000/svg" xmlns:xlink="http://www.w3.org/1999/xlink" x="0px" y="0px"
	 viewBox="0 0 768.4 768.4" style="enable-background:new 0 0 768.4 768.4;" xml:space="preserve">
<style type="text/css">
	.st0{fill:none;}
	.st1{fill:url(#SVGID_1_);}
	.st2{fill:url(#SVGID_00000130642208059624323910000013616460115431970988_);}
	.st3{fill:url(#SVGID_00000075878449347599555030000008186690200717445028_);}
	.st4{fill:url(#SVGID_00000019650336400119373900000006942100756277252484_);}
	.st5{fill:#231F20;}
	.st6{fill:url(#SVGID_00000015322645262573014650000011528066630516688023_);}
	.st7{fill:url(#SVGID_00000044899943779489496810000001476486243343229840_);}
	.st8{fill:url(#SVGID_00000072282387184319407090000013166724485792036496_);}
	.st9{fill:url(#SVGID_00000056406576949511377760000002902364591068411563_);}
	.st10{fill:url(#SVGID_00000018204360204914497180000006272908401335595930_);}
</style>
<rect class="st0" width="768.4" height="768.4"/>
<g>

		<linearGradient id="SVGID_1_" gradientUnits="userSpaceOnUse" x1="206.5268" y1="351.6187" x2="34.7368" y2="205.7987" gradientTransform="matrix(1 0 0 -1 0 769.41)">
		<stop  offset="0" style="stop-color:#4b5563"/>
		<stop  offset="1" style="stop-color:#9ca3af"/>
	</linearGradient>
	<path class="st1" d="M68.5,579.8v13.8H20.6C6.9,593.5,0,586.5,0,572.5v-27.4c0.1-13.4,6.9-20.1,20.5-20.1h48v13.3H22.7
		c-6,0-9,3.3-9,9.8v21.3c0,6.9,4,10.4,11.9,10.5H68.5L68.5,579.8z"/>

		<linearGradient id="SVGID_00000100351554611552326160000014755173028700793747_" gradientUnits="userSpaceOnUse" x1="241.5793" y1="310.3258" x2="69.7893" y2="164.5058" gradientTransform="matrix(1 0 0 -1 0 769.41)">
		<stop  offset="0" style="stop-color:#4b5563"/>
		<stop  offset="1" style="stop-color:#9ca3af"/>
	</linearGradient>
	<path style="fill:url(#SVGID_00000100351554611552326160000014755173028700793747_);" d="M160.9,545.6v31c0,11.2-7,16.9-20.9,17.1
		h-34.4c-13.7-0.1-20.5-6-20.6-17.6v-30.5c0.1-13.7,7-20.5,20.7-20.6h34.3C153.8,525,160.8,531.9,160.9,545.6L160.9,545.6z
		 M138.3,538.7h-30.4c-6,0-9,3-9.1,8.8V573c0,4.6,3.9,7,11.9,7h27.1c6.1,0,9.2-1.7,9.3-5.2v-27.4C147,541.6,144.1,538.7,138.3,538.7
		L138.3,538.7z"/>

		<linearGradient id="SVGID_00000053545257638248670000000018373394138808107687_" gradientUnits="userSpaceOnUse" x1="282.0256" y1="262.6684" x2="110.2356" y2="116.8484" gradientTransform="matrix(1 0 0 -1 0 769.41)">
		<stop  offset="0" style="stop-color:#4b5563"/>
		<stop  offset="1" style="stop-color:#9ca3af"/>
	</linearGradient>
	<path style="fill:url(#SVGID_00000053545257638248670000000018373394138808107687_);" d="M252.2,497.6v96h-54.9
		c-13.7-0.2-20.6-7.2-20.6-21v-27.4c0-13,6.9-19.7,20.5-20.2h34.4v13.7H200c-6.4,0-9.6,3.1-9.6,9.4v21.3c0,6.9,4,10.4,11.9,10.5
		h36.2v-82.3L252.2,497.6L252.2,497.6z"/>

		<linearGradient id="SVGID_00000089537080464935009370000005280542977935201431_" gradientUnits="userSpaceOnUse" x1="319.6426" y1="218.362" x2="147.8526" y2="72.532" gradientTransform="matrix(1 0 0 -1 0 769.41)">
		<stop  offset="0" style="stop-color:#4b5563"/>
		<stop  offset="1" style="stop-color:#9ca3af"/>
	</linearGradient>
	<path style="fill:url(#SVGID_00000089537080464935009370000005280542977935201431_);" d="M340.5,579.9v13.7h-51.9
		c-13.6-0.1-20.5-6.9-20.6-20.2v-27.8c0-13.7,6.9-20.5,20.6-20.6H323c13.6,0.1,20.5,5.8,20.6,17.1v21.4h-54.3v-14h40.5l0.1-5.7
		c0-3.4-2.3-5.2-6.9-5.2h-30.8c-7,0-10.5,3.3-10.5,9.8v21.2c0,6.8,3.1,10.2,9.3,10.1L340.5,579.9L340.5,579.9z"/>
	<path class="st5" d="M403.9,547.4c-0.1-5.7-3-8.6-8.8-8.6h-21.8v54.9h-13.7l-0.1-68.6h82.1c13.8,0,20.7,6.9,20.8,20.6v48h-13.9
		l-0.1-45.9c0-6-3.1-9-9.1-9H418v54.8h-14.2L403.9,547.4L403.9,547.4z"/>
	<path class="st5" d="M484.1,538.7V525h48c13.7,0,20.6,6.7,20.7,20.1v48.5h-56.5c-12.6,0-19-5.7-19-17.1V567
		c0-11.6,5.8-17.4,17.5-17.5H531v13.7h-30.2c-6.6,0-9.9,2.7-9.9,8h0.1c0,5.7,3,8.6,9.1,8.6H539l-0.1-30.4c0-7.2-3.1-10.9-9.2-10.9
		L484.1,538.7L484.1,538.7z"/>
	<path class="st5" d="M582.4,593.6h-13.7v-68.7h54.9c13.8,0.1,20.7,7,20.7,20.7l0.1,48h-13.8v-45.9c-0.1-5.8-3.2-8.8-9.2-9h-38.9
		L582.4,593.6L582.4,593.6z"/>
	<path class="st5" d="M676.7,511.7h-14.1v-14.1h14.1V511.7z M662.8,524.5h13.9v69.1h-13.9V524.5L662.8,524.5z"/>
	<path class="st5" d="M699.8,538.7V525h48c13.7,0,20.6,6.7,20.7,20.1v48.5h-56.5c-12.6,0-19-5.7-19-17.1V567
		c0-11.6,5.8-17.4,17.5-17.5h36.3v13.7h-30.2c-6.6,0-9.9,2.7-9.9,8h0.1c0,5.7,3,8.6,9.2,8.6h38.9l-0.1-30.4c0-7.2-3.1-10.9-9.2-10.9
		L699.8,538.7L699.8,538.7z"/>
</g>
<g>

		<linearGradient id="SVGID_00000154386891598323260650000017454892873970588308_" gradientUnits="userSpaceOnUse" x1="628.741" y1="516.4238" x2="326.111" y2="261.7439" gradientTransform="matrix(1 0 0 -1 0 769.41)">
		<stop  offset="0" style="stop-color:#4b5563"/>
		<stop  offset="1" style="stop-color:#9ca3af"/>
	</linearGradient>
	<polygon style="fill:url(#SVGID_00000154386891598323260650000017454892873970588308_);" points="472.2,461.8 441.4,429.8
		327,429.8 296.2,461.8 	"/>
	<polygon class="st5" points="375.4,174.7 364.8,200.5 279,409.2 270.1,431 242.1,431 249.4,413.5 336.9,200.5 347.5,174.7 	"/>
	<polygon class="st5" points="436.1,351.4 387.5,302.8 436.1,254.3 436.1,217.8 351,302.8 436.1,387.9 	"/>
	<polygon class="st5" points="462.7,351.4 511.3,302.8 462.7,254.3 462.7,217.8 547.8,302.8 462.7,387.9 	"/>
	<g>
		<g>

				<linearGradient id="SVGID_00000054986323337777482540000002696651208562186655_" gradientUnits="userSpaceOnUse" x1="552.1517" y1="607.443" x2="249.5217" y2="352.753" gradientTransform="matrix(1 0 0 -1 0 769.41)">
				<stop  offset="0" style="stop-color:#4b5563"/>
				<stop  offset="1" style="stop-color:#9ca3af"/>
			</linearGradient>
			<path style="fill:url(#SVGID_00000054986323337777482540000002696651208562186655_);" d="M396.3,174.7l-10.6,25.8h165.9v66.2
				c6.1-1.8,12.3-3.5,18.4-5.4c2.5-0.8,5-1.5,7.4-2.3v-84.4H396.3L396.3,174.7z"/>

				<linearGradient id="SVGID_00000151516558593622234770000016625773042623183506_" gradientUnits="userSpaceOnUse" x1="458.8155" y1="718.3485" x2="156.1755" y2="463.6585" gradientTransform="matrix(1 0 0 -1 0 769.41)">
				<stop  offset="0" style="stop-color:#4b5563"/>
				<stop  offset="1" style="stop-color:#9ca3af"/>
			</linearGradient>
			<path style="fill:url(#SVGID_00000151516558593622234770000016625773042623183506_);" d="M319,193.1l7.6-18.4H191v187.4
				c8.6-1.7,17.2-3.6,25.8-5.6v-156H316L319,193.1L319,193.1z"/>
		</g>

			<linearGradient id="SVGID_00000036973258800116780700000000641846993537059489_" gradientUnits="userSpaceOnUse" x1="622.8425" y1="523.4421" x2="320.2125" y2="268.752" gradientTransform="matrix(1 0 0 -1 0 769.41)">
			<stop  offset="0" style="stop-color:#4b5563"/>
			<stop  offset="1" style="stop-color:#9ca3af"/>
		</linearGradient>
		<path style="fill:url(#SVGID_00000036973258800116780700000000641846993537059489_);" d="M577.4,324.1V431H242.1l7.2-17.5
			c9.5-1.2,19.3-2.6,29.7-4.3c3.5-0.5,7.2-1.1,10.8-1.7c4.6-0.7,9.2-1.5,13.9-2.3h247.8v-69.8c3.4-1.4,6.8-2.8,10-4.3
			C566.7,328.9,572,326.6,577.4,324.1L577.4,324.1z"/>
	</g>

		<linearGradient id="SVGID_00000096778270460806432040000017527277589369133449_" gradientUnits="userSpaceOnUse" x1="565.8904" y1="591.1145" x2="263.2604" y2="336.4245" gradientTransform="matrix(1 0 0 -1 0 769.41)">
		<stop  offset="0" style="stop-color:#4b5563"/>
		<stop  offset="1" style="stop-color:#9ca3af"/>
	</linearGradient>
	<path style="fill:url(#SVGID_00000096778270460806432040000017527277589369133449_);" d="M625.5,271.6c-15.8,8.4-31.8,16.5-48,24.2
		c-8.5,4-17.1,7.9-25.8,11.5c-11.3,5-22.8,9.5-34.4,13.9c-18.5,7.4-37.5,13.4-56.5,19.7c-9.5,3-19.1,5.6-28.7,8.5
		c-9.5,2.9-19.2,5.5-28.8,7.9c-19.3,5.2-38.8,9.5-58.3,14c-19.6,3.9-39.3,7.7-59,10.8c-19.8,3.2-39.7,6.1-59.6,8.2
		c-3.2,0.3-6.3,0.6-9.4,0.9c-8.6,0.8-17.2,1.6-25.8,2.2v-43c8.6-0.3,17.2-0.6,25.8-1c2-0.1,4-0.2,6-0.3c19.4-1.3,38.8-2.5,58.2-4.5
		c38.8-3.8,77.5-8.9,116-15.7c38.5-6.7,76.8-15.1,114.8-24.8c13.3-3.2,26.6-6.8,39.9-10.5c8.6-2.4,17.2-4.9,25.8-7.5
		C593.4,281.3,609.4,276.4,625.5,271.6L625.5,271.6z"/>
</g>
</svg>
