<?xml version="1.0" encoding="UTF-8"?>
<svg id="Layer_1" data-name="Layer 1" xmlns="http://www.w3.org/2000/svg" xmlns:xlink="http://www.w3.org/1999/xlink" viewBox="0 0 768.4 418.99">
  <defs>
    <style>
      .cls-1 {
        fill: url(#linear-gradient-2);
      }

      .cls-2 {
        fill: url(#linear-gradient-6);
      }

      .cls-3 {
        fill: url(#linear-gradient-5);
      }

      .cls-4 {
        fill: url(#linear-gradient-7);
      }

      .cls-5 {
        fill: url(#linear-gradient-9);
      }

      .cls-6 {
        fill: url(#linear-gradient-3);
      }

      .cls-7 {
        fill: url(#linear-gradient);
      }

      .cls-8 {
        fill: #231f20;
      }

      .cls-9 {
        fill: url(#linear-gradient-4);
      }

      .cls-10 {
        fill: url(#linear-gradient-8);
      }
    </style>
    <linearGradient id="linear-gradient" x1="206.53" y1="243.09" x2="34.74" y2="388.91" gradientUnits="userSpaceOnUse">
        <stop offset="0" stop-color="#4b5563"/>
        <stop offset="1" stop-color="#9ca3af"/>
    </linearGradient>
    <linearGradient id="linear-gradient-2" x1="241.58" y1="284.38" x2="69.79" y2="430.2" xlink:href="#linear-gradient"/>
    <linearGradient id="linear-gradient-3" x1="282.02" y1="332.03" x2="110.23" y2="477.85" xlink:href="#linear-gradient"/>
    <linearGradient id="linear-gradient-4" x1="319.64" y1="376.34" x2="147.85" y2="522.17" xlink:href="#linear-gradient"/>
    <linearGradient id="linear-gradient-5" x1="628.74" y1="78.28" x2="326.11" y2="332.96" xlink:href="#linear-gradient"/>
    <linearGradient id="linear-gradient-6" x1="552.15" y1="-12.74" x2="249.52" y2="241.95" xlink:href="#linear-gradient"/>
    <linearGradient id="linear-gradient-7" x1="458.81" y1="-123.65" x2="156.17" y2="131.04" xlink:href="#linear-gradient"/>
    <linearGradient id="linear-gradient-8" x1="622.84" y1="71.26" x2="320.21" y2="325.95" xlink:href="#linear-gradient"/>
    <linearGradient id="linear-gradient-9" x1="565.89" y1="3.59" x2="263.26" y2="258.28" xlink:href="#linear-gradient"/>
  </defs>
  <g>
    <path class="cls-7" d="m68.49,405.13v13.79H20.58c-13.68-.09-20.54-7.13-20.58-21.11v-27.38c.08-13.38,6.93-20.08,20.52-20.12h47.97v13.26H22.74c-5.97,0-8.98,3.27-9.02,9.8v21.31c0,6.93,3.96,10.41,11.89,10.45h42.87Z"/>
    <path class="cls-1" d="m160.89,370.89v31.04c-.04,11.24-6.99,16.92-20.85,17.06h-34.37c-13.68-.13-20.54-5.99-20.58-17.58v-30.52c.13-13.68,7.04-20.54,20.72-20.58h34.31c13.72,0,20.65,6.86,20.78,20.58Zm-22.61-6.93h-30.39c-5.97.04-9,2.96-9.08,8.75v25.56c-.04,4.62,3.92,6.95,11.89,6.99h27.06c6.15,0,9.23-1.72,9.28-5.17v-27.38c0-5.79-2.92-8.71-8.75-8.75Z"/>
    <path class="cls-6" d="m252.19,322.86v96h-54.89c-13.68-.22-20.57-7.23-20.65-21.04v-27.38c.04-12.98,6.88-19.71,20.52-20.19h34.44v13.72h-31.63c-6.41-.04-9.61,3.09-9.61,9.41v21.31c.04,6.93,4.01,10.43,11.89,10.52h36.21v-82.34h13.72Z"/>
    <path class="cls-9" d="m340.55,405.2v13.72h-51.89c-13.59-.13-20.45-6.86-20.58-20.19v-27.84c0-13.68,6.86-20.54,20.58-20.58h34.37c13.6.08,20.46,5.79,20.59,17.12v21.44h-54.31v-13.98h40.52l.07-5.69c-.04-3.44-2.33-5.17-6.86-5.17h-30.78c-6.98,0-10.46,3.27-10.46,9.8v21.24c0,6.8,3.09,10.18,9.28,10.13h49.47Z"/>
    <path class="cls-8" d="m403.86,372.66c-.09-5.71-3.01-8.59-8.76-8.63h-21.76v54.9h-13.72l-.07-68.56h82.15c13.81.04,20.74,6.91,20.78,20.59v47.97h-13.86l-.07-45.88c-.04-5.97-3.09-8.97-9.15-9.02h-21.37v54.76h-14.18v-46.13Z"/>
    <path class="cls-8" d="m484.12,363.96v-13.66h47.97c13.67,0,20.56,6.71,20.65,20.12v48.49h-56.53c-12.63,0-18.95-5.71-18.95-17.12v-9.47c0-11.59,5.84-17.41,17.51-17.45h36.27v13.72h-30.19c-6.58,0-9.89,2.68-9.93,8.04h.07c0,5.71,3.04,8.56,9.15,8.56h38.89l-.07-30.39c0-7.23-3.07-10.85-9.21-10.85h-45.62Z"/>
    <path class="cls-8" d="m582.41,418.92h-13.72v-68.68h54.9c13.76.09,20.65,6.97,20.65,20.65l.06,47.97h-13.85v-45.94c-.13-5.84-3.18-8.82-9.15-8.95h-38.88v54.96Z"/>
    <path class="cls-8" d="m676.71,336.97h-14.11v-14.12h14.11v14.12Zm-13.92,12.81h13.86v69.14h-13.86v-69.14Z"/>
    <path class="cls-8" d="m699.78,363.96v-13.66h47.97c13.67,0,20.56,6.71,20.65,20.12v48.49h-56.53c-12.63,0-18.95-5.71-18.95-17.12v-9.47c0-11.59,5.84-17.41,17.51-17.45h36.27v13.72h-30.19c-6.58,0-9.89,2.68-9.93,8.04h.07c0,5.71,3.04,8.56,9.15,8.56h38.89l-.07-30.39c0-7.23-3.07-10.85-9.21-10.85h-45.62Z"/>
  </g>
  <g>
    <polygon class="cls-3" points="472.22 287.05 441.38 255.14 327.03 255.14 296.19 287.05 472.22 287.05"/>
    <polygon class="cls-8" points="375.4 0 364.82 25.8 279.04 234.51 270.07 256.31 242.15 256.31 249.37 238.77 336.89 25.8 347.53 0 375.4 0"/>
    <polygon class="cls-8" points="436.08 176.73 387.49 128.14 436.08 79.55 436.08 43.07 351.01 128.14 436.08 213.21 436.08 176.73"/>
    <polygon class="cls-8" points="462.71 176.73 511.3 128.14 462.71 79.55 462.71 43.07 547.78 128.14 462.71 213.21 462.71 176.73"/>
    <g>
      <g>
        <path class="cls-2" d="m396.31,0l-10.58,25.8h165.87v66.24c6.13-1.81,12.32-3.55,18.38-5.35,2.45-.77,4.97-1.48,7.42-2.26V0h-181.09Z"/>
        <path class="cls-4" d="m319,18.44l7.61-18.44h-135.6v187.36c8.64-1.74,17.22-3.61,25.8-5.61V25.8h99.17l3.02-7.35Z"/>
      </g>
      <path class="cls-10" d="m577.4,149.44v106.87H242.15l7.22-17.54c9.48-1.23,19.28-2.64,29.67-4.26,3.55-.52,7.16-1.1,10.84-1.68,4.58-.71,9.16-1.48,13.93-2.32h247.8v-69.85c3.42-1.42,6.77-2.84,10-4.26,5.1-2.19,10.38-4.51,15.8-6.97Z"/>
    </g>
    <path class="cls-5" d="m625.45,96.87c-15.8,8.38-31.8,16.51-48.05,24.19-8.51,4-17.09,7.87-25.8,11.54-11.35,4.97-22.83,9.55-34.44,13.87-18.51,7.42-37.54,13.35-56.5,19.67-9.48,2.97-19.09,5.61-28.7,8.45-9.55,2.9-19.16,5.48-28.83,7.93-19.28,5.16-38.76,9.55-58.31,14-19.61,3.93-39.28,7.67-59.01,10.84-19.8,3.22-39.67,6.06-59.59,8.19-3.16.32-6.26.65-9.42.9-8.58.84-17.16,1.61-25.8,2.19v-42.96c8.58-.26,17.22-.64,25.8-1.03,2-.13,4-.19,6-.32,19.35-1.29,38.76-2.52,58.18-4.45,38.76-3.81,77.46-8.9,115.96-15.67,38.5-6.71,76.75-15.09,114.8-24.83,13.35-3.22,26.64-6.77,39.86-10.51,8.58-2.39,17.22-4.9,25.8-7.48,16-4.77,31.99-9.67,48.05-14.51Z"/>
  </g>
</svg>
