<?xml version="1.0" encoding="utf-8"?>
<!-- Generator: Adobe Illustrator 27.4.1, SVG Export Plug-In . SVG Version: 6.00 Build 0)  -->
<svg version="1.1" id="Layer_1" xmlns="http://www.w3.org/2000/svg" xmlns:xlink="http://www.w3.org/1999/xlink" x="0px" y="0px"
	 viewBox="0 0 584.8 584.8" style="enable-background:new 0 0 584.8 584.8;" xml:space="preserve">
<style type="text/css">
	.st0{fill:none;}
	.st1{fill:url(#SVGID_1_);}
	.st2{fill:#231F20;}
	.st3{fill:url(#SVGID_00000060747940616849418020000015846498547572163218_);}
	.st4{fill:url(#SVGID_00000155838788470246926510000001058918003274408578_);}
	.st5{fill:url(#SVGID_00000114752743108152951800000010336774869613997965_);}
	.st6{fill:url(#SVGID_00000119826645056142625940000014488193897210747323_);}
</style>
<rect class="st0" width="584.8" height="584.8"/>
<linearGradient id="SVGID_1_" gradientUnits="userSpaceOnUse" x1="589.2298" y1="381.8503" x2="181.8698" y2="39.0203" gradientTransform="matrix(1 0 0 -1 0 586.42)">
	<stop  offset="0" style="stop-color:#4b5563"/>
	<stop  offset="1" style="stop-color:#9ca3af"/>
</linearGradient>
<polygon class="st1" points="378.5,485.6 337,442.6 183.1,442.6 141.6,485.6 "/>
<polygon class="st2" points="248.2,99.2 234,133.9 118.5,414.9 106.4,444.2 68.8,444.2 78.6,420.6 196.4,133.9 210.7,99.2 "/>
<polygon class="st2" points="329.9,337.1 264.5,271.7 329.9,206.3 329.9,157.2 215.4,271.7 329.9,386.2 "/>
<polygon class="st2" points="365.7,337.1 431.1,271.7 365.7,206.3 365.7,157.2 480.2,271.7 365.7,386.2 "/>
<g>
	<g>

			<linearGradient id="SVGID_00000039853021538624580140000013680790489399094201_" gradientUnits="userSpaceOnUse" x1="486.1275" y1="504.353" x2="78.7674" y2="161.5331" gradientTransform="matrix(1 0 0 -1 0 586.42)">
                <stop  offset="0" style="stop-color:#4b5563"/>
                <stop  offset="1" style="stop-color:#9ca3af"/>
		</linearGradient>
		<path style="fill:url(#SVGID_00000039853021538624580140000013680790489399094201_);" d="M276.4,99.2l-14.2,34.7h223.3v89.2
			c8.2-2.4,16.6-4.8,24.7-7.2c3.3-1,6.7-2,10-3V99.2H276.4z"/>

			<linearGradient id="SVGID_00000089542043429677735790000002244161211708446377_" gradientUnits="userSpaceOnUse" x1="360.4815" y1="653.6483" x2="-46.8786" y2="310.8183" gradientTransform="matrix(1 0 0 -1 0 586.42)">
			<stop  offset="0" style="stop-color:#4b5563"/>
			<stop  offset="1" style="stop-color:#9ca3af"/>
		</linearGradient>
		<path style="fill:url(#SVGID_00000089542043429677735790000002244161211708446377_);" d="M172.3,124l10.2-24.8H0v252.2
			c11.6-2.3,23.2-4.9,34.7-7.6V133.9h133.5L172.3,124L172.3,124z"/>
	</g>

		<linearGradient id="SVGID_00000000216746155776437680000003630425422375311038_" gradientUnits="userSpaceOnUse" x1="581.2915" y1="391.2782" x2="173.9315" y2="48.4483" gradientTransform="matrix(1 0 0 -1 0 586.42)">
		<stop  offset="0" style="stop-color:#4b5563"/>
		<stop  offset="1" style="stop-color:#9ca3af"/>
	</linearGradient>
	<path style="fill:url(#SVGID_00000000216746155776437680000003630425422375311038_);" d="M520.1,300.4v143.9H68.8l9.7-23.6
		c12.8-1.6,26-3.6,39.9-5.7c4.8-0.7,9.6-1.5,14.6-2.3c6.2-1,12.3-2,18.8-3.1h333.5v-94c4.6-1.9,9.1-3.8,13.5-5.7
		C505.7,306.8,512.8,303.7,520.1,300.4L520.1,300.4z"/>
</g>
<linearGradient id="SVGID_00000060748530341561283530000016485256765711110577_" gradientUnits="userSpaceOnUse" x1="504.6354" y1="482.3636" x2="97.2754" y2="139.5336" gradientTransform="matrix(1 0 0 -1 0 586.42)">
	<stop  offset="0" style="stop-color:#4b5563"/>
	<stop  offset="1" style="stop-color:#9ca3af"/>
</linearGradient>
<path style="fill:url(#SVGID_00000060748530341561283530000016485256765711110577_);" d="M584.8,229.6
	c-21.3,11.3-42.8,22.2-64.7,32.6c-11.5,5.4-23,10.6-34.7,15.5c-15.3,6.7-30.7,12.9-46.4,18.7c-24.9,10-50.5,18-76,26.5
	c-12.8,4-25.7,7.5-38.6,11.4c-12.9,3.9-25.8,7.4-38.8,10.7c-26,7-52.2,12.9-78.5,18.8c-26.4,5.3-52.9,10.3-79.4,14.6
	c-26.7,4.3-53.4,8.2-80.2,11c-4.2,0.4-8.4,0.9-12.7,1.2c-11.5,1.1-23.1,2.2-34.7,3v-57.8c11.6-0.4,23.2-0.9,34.7-1.4
	c2.7-0.2,5.4-0.3,8.1-0.4c26.1-1.7,52.2-3.4,78.3-6c52.2-5.1,104.3-12,156.1-21.1c51.8-9,103.3-20.3,154.5-33.4
	c18-4.3,35.9-9.1,53.6-14.1c11.5-3.2,23.2-6.6,34.7-10.1C541.6,242.7,563.2,236.1,584.8,229.6L584.8,229.6z"/>
</svg>
