<?xml version="1.0" encoding="UTF-8"?>
<svg id="Layer_1" data-name="Layer 1" xmlns="http://www.w3.org/2000/svg" xmlns:xlink="http://www.w3.org/1999/xlink" viewBox="0 0 584.8 386.38">
  <defs>
    <style>
      .cls-1 {
        fill: url(#linear-gradient-2);
      }

      .cls-2 {
        fill: #fff;
      }

      .cls-3 {
        fill: url(#linear-gradient-5);
      }

      .cls-4 {
        fill: url(#linear-gradient-3);
      }

      .cls-5 {
        fill: url(#linear-gradient);
      }

      .cls-6 {
        fill: url(#linear-gradient-4);
      }
    </style>
    <linearGradient id="linear-gradient" x1="589.23" y1="105.36" x2="181.87" y2="448.19" gradientUnits="userSpaceOnUse">
        <stop offset="0" stop-color="#4b5563"/>
        <stop offset="1" stop-color="#9ca3af"/>
    </linearGradient>
    <linearGradient id="linear-gradient-2" x1="486.13" y1="-17.14" x2="78.77" y2="325.68" xlink:href="#linear-gradient"/>
    <linearGradient id="linear-gradient-3" x1="360.48" y1="-166.44" x2="-46.88" y2="176.39" xlink:href="#linear-gradient"/>
    <linearGradient id="linear-gradient-4" x1="581.29" y1="95.93" x2="173.93" y2="438.76" xlink:href="#linear-gradient"/>
    <linearGradient id="linear-gradient-5" x1="504.63" y1="4.84" x2="97.27" y2="347.67" xlink:href="#linear-gradient"/>
  </defs>
  <polygon class="cls-5" points="378.54 386.38 337.03 343.44 183.11 343.44 141.6 386.38 378.54 386.38"/>
  <polygon class="cls-2" points="248.21 0 233.97 34.73 118.51 315.67 106.44 345.01 68.85 345.01 78.57 321.4 196.38 34.73 210.71 0 248.21 0"/>
  <polygon class="cls-2" points="329.89 237.88 264.48 172.48 329.89 107.08 329.89 57.97 215.38 172.48 329.89 286.99 329.89 237.88"/>
  <polygon class="cls-2" points="365.74 237.88 431.15 172.48 365.74 107.08 365.74 57.97 480.25 172.48 365.74 286.99 365.74 237.88"/>
  <g>
    <g>
      <path class="cls-1" d="m276.36,0l-14.24,34.73h223.28v89.16c8.25-2.43,16.58-4.77,24.74-7.21,3.3-1.04,6.69-2,9.98-3.04V0h-243.76Z"/>
      <path class="cls-4" d="m172.29,24.83L182.53,0H0v252.2c11.63-2.34,23.18-4.86,34.73-7.55V34.73h133.5l4.07-9.9Z"/>
    </g>
    <path class="cls-6" d="m520.12,201.16v143.86H68.85l9.72-23.61c12.76-1.65,25.96-3.56,39.94-5.73,4.77-.69,9.64-1.48,14.59-2.26,6.16-.95,12.33-2,18.75-3.13h333.55v-94.02c4.6-1.91,9.12-3.82,13.46-5.73,6.86-2.95,13.98-6.08,21.27-9.38Z"/>
  </g>
  <path class="cls-3" d="m584.8,130.4c-21.27,11.29-42.8,22.23-64.68,32.56-11.46,5.38-23.01,10.59-34.73,15.54-15.28,6.69-30.73,12.85-46.36,18.67-24.92,9.98-50.53,17.97-76.05,26.48-12.76,3.99-25.7,7.55-38.63,11.37-12.85,3.91-25.78,7.38-38.81,10.68-25.96,6.95-52.18,12.85-78.48,18.84-26.39,5.3-52.87,10.33-79.44,14.59-26.65,4.34-53.39,8.16-80.22,11.03-4.25.43-8.42.87-12.68,1.22-11.55,1.13-23.09,2.17-34.73,2.95v-57.82c11.55-.35,23.18-.87,34.73-1.39,2.69-.17,5.38-.26,8.07-.43,26.05-1.74,52.18-3.39,78.31-5.99,52.18-5.12,104.27-11.98,156.1-21.1,51.83-9.03,103.31-20.31,154.53-33.42,17.97-4.34,35.86-9.12,53.65-14.15,11.55-3.21,23.18-6.6,34.73-10.07,21.53-6.42,43.06-13.02,64.68-19.53Z"/>
</svg>
