<svg id="visual" viewBox="0 0 5000 300" width="5000" height="300" xmlns="http://www.w3.org/2000/svg" xmlns:xlink="http://www.w3.org/1999/xlink" version="1.1"><path d="M0 57L52.2 57.2C104.3 57.3 208.7 57.7 312.8 63.7C417 69.7 521 81.3 625.2 81.8C729.3 82.3 833.7 71.7 937.8 70.8C1042 70 1146 79 1250.2 78.5C1354.3 78 1458.7 68 1562.8 62.7C1667 57.3 1771 56.7 1875.2 60.5C1979.3 64.3 2083.7 72.7 2187.8 80.2C2292 87.7 2396 94.3 2500.2 91.7C2604.3 89 2708.7 77 2812.8 77.3C2917 77.7 3021 90.3 3125.2 89.5C3229.3 88.7 3333.7 74.3 3437.8 73.3C3542 72.3 3646 84.7 3750.2 90.2C3854.3 95.7 3958.7 94.3 4062.8 94.8C4167 95.3 4271 97.7 4375.2 98.2C4479.3 98.7 4583.7 97.3 4687.8 90.7C4792 84 4896 72 4948 66L5000 60L5000 0L4948 0C4896 0 4792 0 4687.8 0C4583.7 0 4479.3 0 4375.2 0C4271 0 4167 0 4062.8 0C3958.7 0 3854.3 0 3750.2 0C3646 0 3542 0 3437.8 0C3333.7 0 3229.3 0 3125.2 0C3021 0 2917 0 2812.8 0C2708.7 0 2604.3 0 2500.2 0C2396 0 2292 0 2187.8 0C2083.7 0 1979.3 0 1875.2 0C1771 0 1667 0 1562.8 0C1458.7 0 1354.3 0 1250.2 0C1146 0 1042 0 937.8 0C833.7 0 729.3 0 625.2 0C521 0 417 0 312.8 0C208.7 0 104.3 0 52.2 0L0 0Z" fill="#324a1d"></path><path d="M0 46L52.2 48.5C104.3 51 208.7 56 312.8 55.8C417 55.7 521 50.3 625.2 53C729.3 55.7 833.7 66.3 937.8 67C1042 67.7 1146 58.3 1250.2 52.8C1354.3 47.3 1458.7 45.7 1562.8 45.3C1667 45 1771 46 1875.2 51.5C1979.3 57 2083.7 67 2187.8 70.7C2292 74.3 2396 71.7 2500.2 66.8C2604.3 62 2708.7 55 2812.8 54.2C2917 53.3 3021 58.7 3125.2 56.3C3229.3 54 3333.7 44 3437.8 43.3C3542 42.7 3646 51.3 3750.2 52.3C3854.3 53.3 3958.7 46.7 4062.8 48.7C4167 50.7 4271 61.3 4375.2 61C4479.3 60.7 4583.7 49.3 4687.8 47.7C4792 46 4896 54 4948 58L5000 62L5000 0L4948 0C4896 0 4792 0 4687.8 0C4583.7 0 4479.3 0 4375.2 0C4271 0 4167 0 4062.8 0C3958.7 0 3854.3 0 3750.2 0C3646 0 3542 0 3437.8 0C3333.7 0 3229.3 0 3125.2 0C3021 0 2917 0 2812.8 0C2708.7 0 2604.3 0 2500.2 0C2396 0 2292 0 2187.8 0C2083.7 0 1979.3 0 1875.2 0C1771 0 1667 0 1562.8 0C1458.7 0 1354.3 0 1250.2 0C1146 0 1042 0 937.8 0C833.7 0 729.3 0 625.2 0C521 0 417 0 312.8 0C208.7 0 104.3 0 52.2 0L0 0Z" fill="#466d1e"></path><path d="M0 34L52.2 35.5C104.3 37 208.7 40 312.8 38C417 36 521 29 625.2 27.7C729.3 26.3 833.7 30.7 937.8 28.8C1042 27 1146 19 1250.2 16.5C1354.3 14 1458.7 17 1562.8 22.2C1667 27.3 1771 34.7 1875.2 35.7C1979.3 36.7 2083.7 31.3 2187.8 32.2C2292 33 2396 40 2500.2 38.7C2604.3 37.3 2708.7 27.7 2812.8 26.7C2917 25.7 3021 33.3 3125.2 32C3229.3 30.7 3333.7 20.3 3437.8 19.5C3542 18.7 3646 27.3 3750.2 32.5C3854.3 37.7 3958.7 39.3 4062.8 40.5C4167 41.7 4271 42.3 4375.2 40.3C4479.3 38.3 4583.7 33.7 4687.8 33.8C4792 34 4896 39 4948 41.5L5000 44L5000 0L4948 0C4896 0 4792 0 4687.8 0C4583.7 0 4479.3 0 4375.2 0C4271 0 4167 0 4062.8 0C3958.7 0 3854.3 0 3750.2 0C3646 0 3542 0 3437.8 0C3333.7 0 3229.3 0 3125.2 0C3021 0 2917 0 2812.8 0C2708.7 0 2604.3 0 2500.2 0C2396 0 2292 0 2187.8 0C2083.7 0 1979.3 0 1875.2 0C1771 0 1667 0 1562.8 0C1458.7 0 1354.3 0 1250.2 0C1146 0 1042 0 937.8 0C833.7 0 729.3 0 625.2 0C521 0 417 0 312.8 0C208.7 0 104.3 0 52.2 0L0 0Z" fill="#5b8f21"></path></svg>
