<svg id="visual" viewBox="0 0 5000 300" width="5000" height="300" xmlns="http://www.w3.org/2000/svg" xmlns:xlink="http://www.w3.org/1999/xlink" version="1.1"><path d="M0 207L52.2 212.3C104.3 217.7 208.7 228.3 312.8 229.8C417 231.3 521 223.7 625.2 216C729.3 208.3 833.7 200.7 937.8 199.2C1042 197.7 1146 202.3 1250.2 202.8C1354.3 203.3 1458.7 199.7 1562.8 204.8C1667 210 1771 224 1875.2 226.3C1979.3 228.7 2083.7 219.3 2187.8 219.3C2292 219.3 2396 228.7 2500.2 233.5C2604.3 238.3 2708.7 238.7 2812.8 237.8C2917 237 3021 235 3125.2 230C3229.3 225 3333.7 217 3437.8 218.8C3542 220.7 3646 232.3 3750.2 231.8C3854.3 231.3 3958.7 218.7 4062.8 216.7C4167 214.7 4271 223.3 4375.2 223.5C4479.3 223.7 4583.7 215.3 4687.8 217C4792 218.7 4896 230.3 4948 236.2L5000 242L5000 301L4948 301C4896 301 4792 301 4687.8 301C4583.7 301 4479.3 301 4375.2 301C4271 301 4167 301 4062.8 301C3958.7 301 3854.3 301 3750.2 301C3646 301 3542 301 3437.8 301C3333.7 301 3229.3 301 3125.2 301C3021 301 2917 301 2812.8 301C2708.7 301 2604.3 301 2500.2 301C2396 301 2292 301 2187.8 301C2083.7 301 1979.3 301 1875.2 301C1771 301 1667 301 1562.8 301C1458.7 301 1354.3 301 1250.2 301C1146 301 1042 301 937.8 301C833.7 301 729.3 301 625.2 301C521 301 417 301 312.8 301C208.7 301 104.3 301 52.2 301L0 301Z" fill="#bae9fd"></path><path d="M0 224L52.2 228.7C104.3 233.3 208.7 242.7 312.8 245.5C417 248.3 521 244.7 625.2 246.7C729.3 248.7 833.7 256.3 937.8 259.8C1042 263.3 1146 262.7 1250.2 256.2C1354.3 249.7 1458.7 237.3 1562.8 232.7C1667 228 1771 231 1875.2 232.7C1979.3 234.3 2083.7 234.7 2187.8 238.3C2292 242 2396 249 2500.2 246.7C2604.3 244.3 2708.7 232.7 2812.8 228.8C2917 225 3021 229 3125.2 233.3C3229.3 237.7 3333.7 242.3 3437.8 248C3542 253.7 3646 260.3 3750.2 258.3C3854.3 256.3 3958.7 245.7 4062.8 237.8C4167 230 4271 225 4375.2 224.7C4479.3 224.3 4583.7 228.7 4687.8 230.8C4792 233 4896 233 4948 233L5000 233L5000 301L4948 301C4896 301 4792 301 4687.8 301C4583.7 301 4479.3 301 4375.2 301C4271 301 4167 301 4062.8 301C3958.7 301 3854.3 301 3750.2 301C3646 301 3542 301 3437.8 301C3333.7 301 3229.3 301 3125.2 301C3021 301 2917 301 2812.8 301C2708.7 301 2604.3 301 2500.2 301C2396 301 2292 301 2187.8 301C2083.7 301 1979.3 301 1875.2 301C1771 301 1667 301 1562.8 301C1458.7 301 1354.3 301 1250.2 301C1146 301 1042 301 937.8 301C833.7 301 729.3 301 625.2 301C521 301 417 301 312.8 301C208.7 301 104.3 301 52.2 301L0 301Z" fill="#7dd9fc"></path><path d="M0 289L52.2 289C104.3 289 208.7 289 312.8 283.5C417 278 521 267 625.2 263.7C729.3 260.3 833.7 264.7 937.8 269.2C1042 273.7 1146 278.3 1250.2 281.7C1354.3 285 1458.7 287 1562.8 287.8C1667 288.7 1771 288.3 1875.2 281.7C1979.3 275 2083.7 262 2187.8 261.8C2292 261.7 2396 274.3 2500.2 276.7C2604.3 279 2708.7 271 2812.8 266.8C2917 262.7 3021 262.3 3125.2 260.3C3229.3 258.3 3333.7 254.7 3437.8 255.7C3542 256.7 3646 262.3 3750.2 262.3C3854.3 262.3 3958.7 256.7 4062.8 255.8C4167 255 4271 259 4375.2 261.3C4479.3 263.7 4583.7 264.3 4687.8 268.5C4792 272.7 4896 280.3 4948 284.2L5000 288L5000 301L4948 301C4896 301 4792 301 4687.8 301C4583.7 301 4479.3 301 4375.2 301C4271 301 4167 301 4062.8 301C3958.7 301 3854.3 301 3750.2 301C3646 301 3542 301 3437.8 301C3333.7 301 3229.3 301 3125.2 301C3021 301 2917 301 2812.8 301C2708.7 301 2604.3 301 2500.2 301C2396 301 2292 301 2187.8 301C2083.7 301 1979.3 301 1875.2 301C1771 301 1667 301 1562.8 301C1458.7 301 1354.3 301 1250.2 301C1146 301 1042 301 937.8 301C833.7 301 729.3 301 625.2 301C521 301 417 301 312.8 301C208.7 301 104.3 301 52.2 301L0 301Z" fill="#38c6f8"></path></svg>
