<svg id="visual" viewBox="0 0 5000 300" width="5000" height="300" xmlns="http://www.w3.org/2000/svg" xmlns:xlink="http://www.w3.org/1999/xlink" version="1.1"><path d="M0 197L52.2 199.7C104.3 202.3 208.7 207.7 312.8 210.8C417 214 521 215 625.2 212C729.3 209 833.7 202 937.8 202.2C1042 202.3 1146 209.7 1250.2 212.2C1354.3 214.7 1458.7 212.3 1562.8 214.7C1667 217 1771 224 1875.2 221.8C1979.3 219.7 2083.7 208.3 2187.8 206.5C2292 204.7 2396 212.3 2500.2 216.5C2604.3 220.7 2708.7 221.3 2812.8 220.2C2917 219 3021 216 3125.2 211.5C3229.3 207 3333.7 201 3437.8 200.8C3542 200.7 3646 206.3 3750.2 209.7C3854.3 213 3958.7 214 4062.8 213.5C4167 213 4271 211 4375.2 213.3C4479.3 215.7 4583.7 222.3 4687.8 224.8C4792 227.3 4896 225.7 4948 224.8L5000 224L5000 301L4948 301C4896 301 4792 301 4687.8 301C4583.7 301 4479.3 301 4375.2 301C4271 301 4167 301 4062.8 301C3958.7 301 3854.3 301 3750.2 301C3646 301 3542 301 3437.8 301C3333.7 301 3229.3 301 3125.2 301C3021 301 2917 301 2812.8 301C2708.7 301 2604.3 301 2500.2 301C2396 301 2292 301 2187.8 301C2083.7 301 1979.3 301 1875.2 301C1771 301 1667 301 1562.8 301C1458.7 301 1354.3 301 1250.2 301C1146 301 1042 301 937.8 301C833.7 301 729.3 301 625.2 301C521 301 417 301 312.8 301C208.7 301 104.3 301 52.2 301L0 301Z" fill="#075f85"></path><path d="M0 256L52.2 250.5C104.3 245 208.7 234 312.8 231.8C417 229.7 521 236.3 625.2 239.2C729.3 242 833.7 241 937.8 242.3C1042 243.7 1146 247.3 1250.2 246.2C1354.3 245 1458.7 239 1562.8 234.7C1667 230.3 1771 227.7 1875.2 230.7C1979.3 233.7 2083.7 242.3 2187.8 246.7C2292 251 2396 251 2500.2 249.2C2604.3 247.3 2708.7 243.7 2812.8 241C2917 238.3 3021 236.7 3125.2 234.5C3229.3 232.3 3333.7 229.7 3437.8 229.8C3542 230 3646 233 3750.2 238.3C3854.3 243.7 3958.7 251.3 4062.8 255.2C4167 259 4271 259 4375.2 255.2C4479.3 251.3 4583.7 243.7 4687.8 243.2C4792 242.7 4896 249.3 4948 252.7L5000 256L5000 301L4948 301C4896 301 4792 301 4687.8 301C4583.7 301 4479.3 301 4375.2 301C4271 301 4167 301 4062.8 301C3958.7 301 3854.3 301 3750.2 301C3646 301 3542 301 3437.8 301C3333.7 301 3229.3 301 3125.2 301C3021 301 2917 301 2812.8 301C2708.7 301 2604.3 301 2500.2 301C2396 301 2292 301 2187.8 301C2083.7 301 1979.3 301 1875.2 301C1771 301 1667 301 1562.8 301C1458.7 301 1354.3 301 1250.2 301C1146 301 1042 301 937.8 301C833.7 301 729.3 301 625.2 301C521 301 417 301 312.8 301C208.7 301 104.3 301 52.2 301L0 301Z" fill="#0370a1"></path><path d="M0 252L52.2 255.3C104.3 258.7 208.7 265.3 312.8 270.5C417 275.7 521 279.3 625.2 277.3C729.3 275.3 833.7 267.7 937.8 262.2C1042 256.7 1146 253.3 1250.2 254.8C1354.3 256.3 1458.7 262.7 1562.8 263C1667 263.3 1771 257.7 1875.2 259.7C1979.3 261.7 2083.7 271.3 2187.8 276.8C2292 282.3 2396 283.7 2500.2 282.2C2604.3 280.7 2708.7 276.3 2812.8 271.5C2917 266.7 3021 261.3 3125.2 259.3C3229.3 257.3 3333.7 258.7 3437.8 261.2C3542 263.7 3646 267.3 3750.2 268.8C3854.3 270.3 3958.7 269.7 4062.8 268C4167 266.3 4271 263.7 4375.2 267.2C4479.3 270.7 4583.7 280.3 4687.8 279.7C4792 279 4896 268 4948 262.5L5000 257L5000 301L4948 301C4896 301 4792 301 4687.8 301C4583.7 301 4479.3 301 4375.2 301C4271 301 4167 301 4062.8 301C3958.7 301 3854.3 301 3750.2 301C3646 301 3542 301 3437.8 301C3333.7 301 3229.3 301 3125.2 301C3021 301 2917 301 2812.8 301C2708.7 301 2604.3 301 2500.2 301C2396 301 2292 301 2187.8 301C2083.7 301 1979.3 301 1875.2 301C1771 301 1667 301 1562.8 301C1458.7 301 1354.3 301 1250.2 301C1146 301 1042 301 937.8 301C833.7 301 729.3 301 625.2 301C521 301 417 301 312.8 301C208.7 301 104.3 301 52.2 301L0 301Z" fill="#028dc7"></path></svg>
