<svg id="visual" viewBox="0 0 5000 300" width="5000" height="300" xmlns="http://www.w3.org/2000/svg" xmlns:xlink="http://www.w3.org/1999/xlink" version="1.1"><path d="M0 89L52.2 84C104.3 79 208.7 69 312.8 69.2C417 69.3 521 79.7 625.2 86.7C729.3 93.7 833.7 97.3 937.8 99.7C1042 102 1146 103 1250.2 98C1354.3 93 1458.7 82 1562.8 82.2C1667 82.3 1771 93.7 1875.2 92.5C1979.3 91.3 2083.7 77.7 2187.8 72.3C2292 67 2396 70 2500.2 73.5C2604.3 77 2708.7 81 2812.8 80C2917 79 3021 73 3125.2 74C3229.3 75 3333.7 83 3437.8 81.2C3542 79.3 3646 67.7 3750.2 63.7C3854.3 59.7 3958.7 63.3 4062.8 65.8C4167 68.3 4271 69.7 4375.2 75.8C4479.3 82 4583.7 93 4687.8 94.8C4792 96.7 4896 89.3 4948 85.7L5000 82L5000 0L4948 0C4896 0 4792 0 4687.8 0C4583.7 0 4479.3 0 4375.2 0C4271 0 4167 0 4062.8 0C3958.7 0 3854.3 0 3750.2 0C3646 0 3542 0 3437.8 0C3333.7 0 3229.3 0 3125.2 0C3021 0 2917 0 2812.8 0C2708.7 0 2604.3 0 2500.2 0C2396 0 2292 0 2187.8 0C2083.7 0 1979.3 0 1875.2 0C1771 0 1667 0 1562.8 0C1458.7 0 1354.3 0 1250.2 0C1146 0 1042 0 937.8 0C833.7 0 729.3 0 625.2 0C521 0 417 0 312.8 0C208.7 0 104.3 0 52.2 0L0 0Z" fill="#1f2937"></path><path d="M0 34L52.2 36C104.3 38 208.7 42 312.8 49.2C417 56.3 521 66.7 625.2 67.5C729.3 68.3 833.7 59.7 937.8 59.3C1042 59 1146 67 1250.2 66C1354.3 65 1458.7 55 1562.8 51.5C1667 48 1771 51 1875.2 53C1979.3 55 2083.7 56 2187.8 59.2C2292 62.3 2396 67.7 2500.2 69.2C2604.3 70.7 2708.7 68.3 2812.8 64.7C2917 61 3021 56 3125.2 55.7C3229.3 55.3 3333.7 59.7 3437.8 58.5C3542 57.3 3646 50.7 3750.2 50.7C3854.3 50.7 3958.7 57.3 4062.8 61.7C4167 66 4271 68 4375.2 69C4479.3 70 4583.7 70 4687.8 63.7C4792 57.3 4896 44.7 4948 38.3L5000 32L5000 0L4948 0C4896 0 4792 0 4687.8 0C4583.7 0 4479.3 0 4375.2 0C4271 0 4167 0 4062.8 0C3958.7 0 3854.3 0 3750.2 0C3646 0 3542 0 3437.8 0C3333.7 0 3229.3 0 3125.2 0C3021 0 2917 0 2812.8 0C2708.7 0 2604.3 0 2500.2 0C2396 0 2292 0 2187.8 0C2083.7 0 1979.3 0 1875.2 0C1771 0 1667 0 1562.8 0C1458.7 0 1354.3 0 1250.2 0C1146 0 1042 0 937.8 0C833.7 0 729.3 0 625.2 0C521 0 417 0 312.8 0C208.7 0 104.3 0 52.2 0L0 0Z" fill="#374151"></path><path d="M0 33L52.2 32.2C104.3 31.3 208.7 29.7 312.8 31.7C417 33.7 521 39.3 625.2 39.8C729.3 40.3 833.7 35.7 937.8 32.2C1042 28.7 1146 26.3 1250.2 28.3C1354.3 30.3 1458.7 36.7 1562.8 35.2C1667 33.7 1771 24.3 1875.2 22.7C1979.3 21 2083.7 27 2187.8 26.7C2292 26.3 2396 19.7 2500.2 18.5C2604.3 17.3 2708.7 21.7 2812.8 22.7C2917 23.7 3021 21.3 3125.2 21.5C3229.3 21.7 3333.7 24.3 3437.8 24.3C3542 24.3 3646 21.7 3750.2 25.3C3854.3 29 3958.7 39 4062.8 41.2C4167 43.3 4271 37.7 4375.2 37.2C4479.3 36.7 4583.7 41.3 4687.8 42.5C4792 43.7 4896 41.3 4948 40.2L5000 39L5000 0L4948 0C4896 0 4792 0 4687.8 0C4583.7 0 4479.3 0 4375.2 0C4271 0 4167 0 4062.8 0C3958.7 0 3854.3 0 3750.2 0C3646 0 3542 0 3437.8 0C3333.7 0 3229.3 0 3125.2 0C3021 0 2917 0 2812.8 0C2708.7 0 2604.3 0 2500.2 0C2396 0 2292 0 2187.8 0C2083.7 0 1979.3 0 1875.2 0C1771 0 1667 0 1562.8 0C1458.7 0 1354.3 0 1250.2 0C1146 0 1042 0 937.8 0C833.7 0 729.3 0 625.2 0C521 0 417 0 312.8 0C208.7 0 104.3 0 52.2 0L0 0Z" fill="#4b5563"></path></svg>
